<svg xmlns="http://www.w3.org/2000/svg" enable-background="new 0 0 32 32" viewBox="0 0 32 32" id="diploma">
  <g>
    <path d="M27,4H10.24c-0.05,0-0.11,0.01-0.16,0.02C10.05,4.01,10.03,4,10,4C9.92,4,9.84,4.03,9.76,4.05
		C8.88,4.16,8.04,4.54,7.41,5.17L3.17,9.41c-0.64,0.64-1.02,1.47-1.13,2.36C2.03,11.85,2,11.92,2,12c0,0.03,0.01,0.05,0.02,0.08
		c0,0.06-0.02,0.11-0.02,0.16V25c0,1.65,1.35,3,3,3h13c0.55,0,1-0.45,1-1s-0.45-1-1-1H5c-0.55,0-1-0.45-1-1V13l6,0
		c0.27,0,0.52-0.11,0.71-0.29S11,12.27,11,12V6h16c0.55,0,1,0.45,1,1v3c0,0.55,0.45,1,1,1s1-0.45,1-1V7C30,5.35,28.65,4,27,4z
		 M4.45,11c0.05-0.06,0.09-0.12,0.14-0.17l4.24-4.24C8.88,6.53,8.94,6.49,9,6.45V11L4.45,11z"></path>
    <path d="M25 12c-2.76 0-5 2.24-5 5 0 1.12.38 2.14 1.01 2.98C21 19.98 21 19.99 21 20v7c0 .37.2.71.53.88.32.17.72.15 1.03-.05L25 26.2l2.45 1.63C27.61 27.94 27.81 28 28 28c.16 0 .32-.04.47-.12C28.8 27.71 29 27.37 29 27v-7c0-.01 0-.02-.01-.02C29.62 19.14 30 18.12 30 17 30 14.24 27.76 12 25 12zM25 14c1.65 0 3 1.35 3 3s-1.35 3-3 3-3-1.35-3-3S23.35 14 25 14zM25.55 24.17c-.34-.22-.77-.22-1.11 0L23 25.13v-3.56c.61.27 1.29.42 2 .42s1.39-.15 2-.42v3.56L25.55 24.17zM16 21H8c-.55 0-1 .45-1 1s.45 1 1 1h8c.55 0 1-.45 1-1S16.55 21 16 21zM16 17H8c-.55 0-1 .45-1 1s.45 1 1 1h8c.55 0 1-.45 1-1S16.55 17 16 17z"></path>
  </g>
</svg>
