<svg xmlns="http://www.w3.org/2000/svg" enable-background="new 0 0 32 32" viewBox="0 0 32 32" id="email">
  <g id="email_1_">
    <path d="M18.761,15.908c1.928-1.83,4.185-2.214,5.738-2.214c0.776,0,1.561,0.102,2.271,0.285V8.46c0-0.393-0.079-0.764-0.197-1.117
		c-2.925,2.426-5.853,4.851-8.789,7.267c-0.948,0.789-2.157,1.228-3.398,1.228c-1.24,0-2.449-0.438-3.406-1.234
		c-2.922-2.413-5.851-4.84-8.779-7.268C2.08,7.691,2,8.065,2,8.46v10.83c0,1.96,1.58,3.54,3.54,3.54h10.713
		C15.975,20.32,16.876,17.694,18.761,15.908z"></path>
    <path d="M25.59 5.82c-2.98 2.47-5.96 4.94-8.95 7.4-1.31 1.09-3.2 1.09-4.51 0-2.98-2.46-5.96-4.93-8.94-7.4.62-.56 1.44-.9 2.35-.9h17.69C24.14 4.92 24.97 5.26 25.59 5.82zM30.208 18.675c-.701-1.295-1.927-2.299-3.452-2.827-1.446-.503-4.498-.779-6.757 1.366-1.806 1.712-2.485 4.403-1.691 6.697.167.479 1.134 2.917 3.747 3.78.639.211 1.249.29 1.804.29.685 0 1.283-.12 1.741-.255.477-.141.748-.642.607-1.118-.142-.476-.634-.749-1.119-.607-.58.171-1.48.308-2.469-.018-1.812-.598-2.493-2.324-2.611-2.662-.566-1.636-.072-3.565 1.229-4.8 2.047-1.942 4.901-.982 4.929-.971.778.269 1.836.832 2.458 1.981.194.362.626 1.324.423 2.435-.059.314-.138.746-.465 1.1-.309.335-.801.641-1.002.549-.613-.282-.158-2.339-.15-2.369.088-.349.212-.739.369-1.16.175-.465-.062-.984-.527-1.158-.394-.148-.817.012-1.045.346-.577-.423-1.261-.671-1.967-.671-1.012.015-2.013.455-2.557 1.2-.698.886-.858 2.199-.418 3.425.378 1.051 1.14 1.794 2.019 1.984.175.042.356.062.543.062.695 0 1.45-.283 2.13-.784.226.325.505.6.852.759 1.131.522 2.333-.156 3.077-.965.68-.736.83-1.554.911-1.994C31.112 20.678 30.563 19.334 30.208 18.675zM23.703 23.457c-.279-.06-.563-.389-.725-.837-.226-.627-.171-1.312.157-1.729.172-.235.577-.487 1.079-.487.536-.041 1.067.307 1.397.81-.088.454-.132.877-.135 1.268C24.888 23.179 24.124 23.563 23.703 23.457z"></path>
  </g>
</svg>
