<svg xmlns="http://www.w3.org/2000/svg" viewBox="0 0 32 32" id="idea">
  <path d="M22.002,3.293c-1.904-1.705-4.462-2.516-7.025-2.236-3.947,.437-7.255,3.594-7.865,7.507-.549,3.528,.969,6.963,3.889,8.912v2.524c0,1.103,.897,2,2,2h6c1.103,0,2-.897,2-2v-2.525c2.481-1.664,4-4.476,4-7.475,0-2.556-1.093-5.001-2.998-6.707Zm-2.503,12.763c-.309,.179-.499,.508-.499,.865v3.079h-6v-3.079c0-.357-.19-.687-.499-.865-2.524-1.463-3.864-4.283-3.413-7.185,.473-3.037,3.042-5.487,6.109-5.826,.272-.03,.543-.045,.812-.045,1.728,0,3.358,.619,4.658,1.784,1.482,1.327,2.333,3.229,2.333,5.217,0,2.484-1.342,4.805-3.501,6.056Zm.501,8.944c0,.552-.447,1-1,1h-6c-.553,0-1-.448-1-1s.447-1,1-1h6c.553,0,1,.448,1,1Zm-1,4c0,.552-.447,1-1,1h-4c-.553,0-1-.448-1-1s.447-1,1-1h4c.553,0,1,.448,1,1Z"></path>
</svg>
